<?xml version="1.0" encoding="utf-8"?>
<!-- Generator: Adobe Illustrator 26.2.1, SVG Export Plug-In . SVG Version: 6.00 Build 0)  -->
<svg version="1.1" id="Capa_1" xmlns="http://www.w3.org/2000/svg" xmlns:xlink="http://www.w3.org/1999/xlink" x="0px" y="0px"
	 viewBox="0 0 1024 1024" style="enable-background:new 0 0 1024 1024;" xml:space="preserve">
<style type="text/css">
	.st0{fill:#DA2128;}
	.st1{fill:#F26F21;}
	.st2{fill:#FFFFFF;}
</style>
<rect x="-0.3" y="0.3" class="st0" width="1023.2" height="1023.2"/>
<polygon class="st1" points="1023,1023.5 1023,0.3 -0.3,0.3 "/>
<g>
	<path class="st2" d="M817.7,354.9h17.9V325c0-6,2.9-11.7,9.7-11.7c9.8,0,9,7.6,9,15.1v26.5h17.9v-35.1c0-7.9-1.5-21.2-19.7-21.2
		c-6.5,0-13.9,3.5-16.6,9.1h-0.2v-28h-17.9V354.9z M811.3,300.2h-11.1v-16.5h-17.9v16.5h-9.1v11.6h9.1v24.3
		c0,14.9,3.9,19.3,19.2,19.3c3.3,0,6.5-0.4,9.8-0.5v-13.2c-1.6,0-3.2,0.2-4.6,0.2c-3.9,0-6.4-0.9-6.4-5.3v-24.9h11.1V300.2z"/>
	<path class="st2" d="M646.2,610.1c95.1,0,132.3-80.2,132.3-166.8c0-86.7-37.3-166.4-132.3-166.4c-92.3,0-127.2,79.7-127.2,166.4
		C519,529.9,553.9,610.1,646.2,610.1 M648.5,545.8c-50.3,0-53.1-60.1-53.1-102.5c0-42.4,2.8-102.1,53.1-102.1
		c52.2,0,53.6,59.6,53.6,102.1C702.1,485.6,700.7,545.8,648.5,545.8 M346.1,462.3c7-0.5,14-0.9,21-0.9c31.7,0,57.8,8.4,57.8,44.3
		c0,28.4-25.6,40.1-52.7,40.1c-40.1,0-59.2-19.1-58.3-57.8h-74.1c-4.7,83.4,56.9,122.1,132.8,122.1c64.3,0,131.4-30.8,131.4-104.4
		c0-38.2-18.2-64.8-55.5-74.6v-0.9c29.8-5.1,45.2-35,45.2-63.4c0-66.2-64.8-89.9-121.2-89.9c-69.4,0-122.1,37.7-124,110.4h74.1
		c-0.5-29.4,18.2-46.1,50.3-46.1c25.6,0,46.6,11.7,46.6,32.6c0,28-29.4,34-52.7,34c-7,0.5-14-0.9-21-0.5V462.3z"/>
	<path class="st2" d="M813.3,666H795l-10.3,35.6h-0.2L774.1,666h-19l14.1,38c1.1,3,4.5,11.4,4.5,14.3c0,3.8-3.1,6.1-7.2,6.1h-6.2
		V739h8.4c12.1,0,18.5-1.5,22.9-13.5L813.3,666z M715.5,720.7h17.9v-27.1c0-6.9,4.6-13,13.5-13c2.4,0,4.5,0.4,6.9,1.1v-16.3
		c-1.4-0.3-2.8-0.4-4.2-0.4c-7.7,0-13.8,3.7-16.4,10.6h-0.2V666h-17.4V720.7z M673.2,682.8c0.8-4.6,4-6.9,9-6.9
		c3.7,0,8.6,1.6,8.6,5.7c0,3.4-1.7,4.4-4.7,5.1c-12.4,2.5-31.8,1.2-31.8,19c0,11.3,8.2,16.5,18.7,16.5c6.5,0,13.4-1.9,18-6.7
		c0.2,1.8,0.4,3.5,1.1,5.2h18c-2.1-4.3-2.1-9.4-2.1-14v-23.9c0-15.5-12.5-18.3-25.5-18.3c-6.2,0-12.5,1.1-17.4,3.8
		c-4.8,2.8-8.2,7.5-8.5,14.6H673.2z M672.1,705c0-4.3,3.4-6,7.4-7c3.9-1.1,8.5-1.4,11.1-3c0.4,11.3-2.4,16.1-11,16.1
		C675.6,711.2,672.1,709.4,672.1,705 M596.4,702.7c0.5,15.3,13.8,19.6,26.8,19.6c12.3,0,26.2-4.8,26.2-19.5
		c0-4.5-2.8-12.5-13.9-14.8c-8.2-1.8-20.2-2.7-20.2-7.9c0-3.8,4.7-4.1,7.7-4.1c2.2,0,4.2,0.4,5.7,1.4c1.5,1,2.3,2.4,2.3,4.7h16.5
		c-0.6-14.2-13.2-17.7-25.2-17.7c-10.7,0-25,3.6-25,16.8c0,14.8,14.1,15.1,25.4,17.9c3.2,0.7,8.7,1.6,8.7,5.8c0,4.3-5,5.8-8.4,5.8
		c-2.5,0-5-0.6-6.6-1.9c-1.8-1.4-2.9-3.4-2.9-6.1H596.4z M555.9,720.7h17.9v-27.1c0-6.9,4.6-13,13.5-13c2.4,0,4.5,0.4,6.9,1.1v-16.3
		c-1.4-0.3-2.8-0.4-4.2-0.4c-7.7,0-13.8,3.7-16.4,10.6h-0.2V666h-17.4V720.7z M548.4,697.7c0.8-18.5-9-33.3-28.6-33.3
		c-16.1,0-29.5,12-29.5,28.8c0,18.3,12.1,29.1,29.9,29.1c12.2,0,23.9-5.5,27.2-18.1h-16.8c-1.7,4-5.9,6-10.2,6
		c-7.6,0-11.9-5-12.2-12.4H548.4z M508.2,687.7c1.1-6.6,5.3-11.2,11.6-11.2c6,0,10.3,5.1,10.6,11.2H508.2z M491,666h-18.2
		l-10.1,36.1h-0.2l-10-36.1h-18.7l18.2,54.7h20.7L491,666z M429.5,645.4h-17.9v13.7h17.9V645.4z M411.6,720.7h17.9V666h-17.9V720.7z
		 M348.8,720.7h17.9v-29.8c0-6,3-11.7,9.7-11.7c9.8,0,9,7.6,9,15.1v26.5h17.9v-35.1c0-7.9-1.5-21.2-19.7-21.2
		c-6.5,0-13.9,3.5-17.2,9.1h-0.2V666h-17.4V720.7z M286.1,720.7H304v-29.8c0-6,3-11.7,9.7-11.7c9.8,0,9,7.6,9,15.1v26.5h17.9v-35.1
		c0-7.9-1.5-21.2-19.7-21.2c-6.5,0-13.9,3.5-17.2,9.1h-0.2V666h-17.4V720.7z M206.5,720.7h20.1l4.7-13.5h26.2l4.6,13.5h20.4
		l-28.1-75.2h-19.9L206.5,720.7z M244.5,666.3h0.2l8.3,26.3h-17.1L244.5,666.3z"/>
</g>
</svg>
