<?xml version="1.0" encoding="utf-8"?>
<!-- Generator: Adobe Illustrator 26.0.0, SVG Export Plug-In . SVG Version: 6.00 Build 0)  -->
<svg version="1.1" id="Layer_1" xmlns="http://www.w3.org/2000/svg" xmlns:xlink="http://www.w3.org/1999/xlink" x="0px" y="0px"
	 viewBox="0 0 1190.6 224" style="enable-background:new 0 0 1190.6 224;" xml:space="preserve">
<style type="text/css">
	.st0{fill:#EF3E23;}
</style>
<polygon class="st0" points="394.9,115.8 373,131.8 381.3,105.9 359.4,90 386.5,90 394.9,64.1 403.4,90 430.5,90 408.5,105.9 
	416.9,131.8 "/>
<path class="st0" d="M438.2,127.6h24.7v-8.4l-0.6,0.5c-1,0.8-1.9,1.5-4.4,1.5h-7.3v-9.1h4.6c2.5,0,3.4,0.7,4.4,1.5l0.6,0.5v-10.4
	l-0.6,0.5c-1,0.8-1.9,1.5-4.4,1.5h-4.6v-9.3h7.3c2.5,0,3.4,0.7,4.4,1.5l0.6,0.5V90h-24.7l0.5,0.6c0.8,1,1.5,1.9,1.5,4.4v27.6
	c0,2.5-0.7,3.4-1.5,4.4L438.2,127.6z M466.1,100.3c0,4.3,1.6,7.4,4.9,9.7l4.3,3.1c3.5,2.5,4.5,3.5,4.5,5.2c0,2.2-2.1,3.1-5.1,3.1
	c-2.4,0-5.2-0.8-6.9-1.8l-1.7-1v9.3l0.8-0.2c0.9-0.3,2.1-0.5,3.2-0.5c1.9,0,4.7,0.4,7.2,0.4c8.1,0,12.7-3.6,12.7-10.6
	c0-4.2-1.8-7.5-5.6-10.1l-4.3-3.1c-2.6-1.8-3.9-2.8-3.9-4.7c0-1.9,1.3-3.1,4.4-3.1c2.1,0,4.5,0.7,6.1,1.7l1.6,1v-9.2l-0.8,0.2
	c-0.7,0.2-1.8,0.3-2.8,0.3c-1.8,0-4.4-0.4-6.9-0.4C470.6,89.8,466.1,93.3,466.1,100.3 M491.7,98.7l0.6-0.5c1.1-0.8,2.7-1.8,5.4-1.8
	h2v26c0,2.5-0.9,3.6-1.7,4.7l-0.5,0.6h15l-0.5-0.6c-0.9-1.1-1.7-2.1-1.7-4.7v-26h1.9c2.7,0,4.4,1,5.4,1.8l0.6,0.5V90h-26.8
	L491.7,98.7L491.7,98.7z M521.2,127.6h14.4l-0.5-0.6c-0.8-1-1.5-1.9-1.5-4.4v-10.3h2.7l5.8,15.3H554c-1.1-1-2.1-2.3-2.7-3.9
	l-5.1-12.9c2.4-1.5,3.7-4.2,3.7-8v-3.6c0-5.9-3.5-9.2-9.5-9.2h-19.1l0.5,0.6c0.8,1,1.5,1.9,1.5,4.4v27.6c0,2.5-0.7,3.4-1.5,4.4
	L521.2,127.6z M533.7,106v-9.8h3.4c2.3,0,2.6,1.3,2.6,2.3v5.1c0,1-0.3,2.4-2.6,2.4H533.7z M556.8,127.6h24.7v-8.4l-0.6,0.5
	c-1,0.8-1.9,1.5-4.4,1.5h-7.3v-9.1h4.6c2.5,0,3.4,0.7,4.4,1.5l0.6,0.5v-10.4l-0.6,0.5c-1,0.8-1.9,1.5-4.4,1.5h-4.6v-9.3h7.3
	c2.5,0,3.4,0.7,4.4,1.5l0.6,0.5V90h-24.7l0.5,0.6c0.8,1,1.5,1.9,1.5,4.4v27.6c0,2.5-0.7,3.4-1.5,4.4L556.8,127.6z M586.4,127.6h23
	V119l-0.6,0.5c-1,0.8-2.3,1.7-4.8,1.7h-5V95c0-2.5,0.7-3.4,1.5-4.4l0.5-0.6h-14.6l0.5,0.6c0.8,1,1.5,1.9,1.5,4.4v27.6
	c0,2.5-0.7,3.4-1.5,4.4L586.4,127.6z M611.8,127.6h23V119l-0.6,0.5c-1,0.8-2.3,1.7-4.8,1.7h-5V95c0-2.5,0.7-3.4,1.5-4.4l0.5-0.6
	h-14.6l0.5,0.6c0.8,1,1.5,1.9,1.5,4.4v27.6c0,2.5-0.7,3.4-1.5,4.4L611.8,127.6z M637.7,127.6h11.9l-0.2-0.6
	c-0.6-1.8-0.7-2.7-0.5-4.5l0.3-2.8h7.3l0.4,3.3c0.2,1.2,0,2.6-0.5,4.1l-0.2,0.6h13.2l-0.5-0.7c-0.7-1.2-1.3-2.6-1.6-4.7l-4.3-26.6
	c-0.3-1.8-0.2-3.5,0.3-4.8l0.2-0.7h-20.3l0.2,0.7c0.5,1.6,0.7,3,0.3,5.2l-4.2,26.9c-0.2,1.2-0.6,2.4-1.2,3.6L637.7,127.6z
	 M650.1,113.2l2.1-16.6h1.4l2.1,16.6H650.1z"/>
<path class="st0" d="M713.4,127.6h11.9l-0.2-0.6c-0.6-1.8-0.7-2.7-0.5-4.5l0.3-2.8h7.3l0.4,3.3c0.2,1.2,0,2.6-0.5,4.1l-0.2,0.6h13.2
	l-0.5-0.7c-0.7-1.2-1.3-2.6-1.6-4.7l-4.2-26.6c-0.3-1.8-0.2-3.5,0.2-4.8l0.2-0.7h-20.3l0.2,0.7c0.5,1.6,0.7,3,0.3,5.2l-4.2,26.9
	c-0.2,1.2-0.6,2.4-1.2,3.6L713.4,127.6z M725.8,113.2l2.1-16.6h1.4l2.1,16.6H725.8z"/>
<path class="st0" d="M748.4,127.6h13.7l-0.5-0.6c-0.9-1-1.8-2.6-1.8-4.8v-18.4h1.2l4.4,12.4h4.8l4.1-12.4h1.2v18.4
	c0,2.1-0.4,3.7-1.2,4.8l-0.5,0.6h14l-0.5-0.6c-0.8-1-1.8-2.6-1.8-4.8v-27c0-2.1,0.9-3.7,1.8-4.8l0.5-0.6h-14.3l-5,14.8h-1.2
	l-5.3-14.8h-13.7l0.5,0.6c0.8,1,1.7,2.6,1.7,4.8v27c0,2.1-0.9,3.7-1.7,4.8L748.4,127.6z"/>
<path class="st0" d="M693.6,121.1V96.3h3.6c2.2,0,2.5,1.4,2.5,2.3v20.1c0,0.9-0.3,2.3-2.5,2.3L693.6,121.1L693.6,121.1z
	 M680.7,127.6h20c6.3,0,9.8-3.3,9.8-9.2V99.1c0-5.9-3.4-9.2-9.8-9.2h-20l0.5,0.6c0.8,1,1.8,2.6,1.8,4.8v27c0,2.1-0.9,3.7-1.8,4.8
	L680.7,127.6z"/>
<path class="st0" d="M792.6,127c0.9-1,1.7-2.6,1.7-4.8v-27c0-2.1-0.8-3.7-1.7-4.8l-0.5-0.6h13.7l5.3,14.8h1.2l5-14.8h14.3l-0.5,0.6
	c-0.9,1-1.8,2.6-1.8,4.8v27c0,2.1,0.9,3.7,1.8,4.8l0.5,0.6h-14l0.5-0.6c0.9-1,1.2-2.6,1.2-4.8v-18.4H818l-4.1,12.4h-4.8l-4.4-12.4
	h-1.2v18.4c0,2.1,0.9,3.7,1.8,4.8l0.5,0.6h-13.7L792.6,127z"/>
</svg>
